<?xml version="1.0" standalone="no"?>
<!DOCTYPE svg PUBLIC "-//W3C//DTD SVG 20010904//EN" "http://www.w3.org/TR/2001/REC-SVG-20010904/DTD/svg10.dtd">
<svg id='header__logo' version="1.0" xmlns="http://www.w3.org/2000/svg" width="512.000000pt" height="512.000000pt" viewBox="0 0 512.000000 512.000000" preserveAspectRatio="xMidYMid meet">
    <g transform="translate(0.000000,512.000000) scale(0.100000,-0.100000)" fill="#000000" stroke="none">
        <path
            d="M2340 5110 c-8 -5 -17 -31 -20 -62 l-5 -53 -85 -7 c-251 -21 -530
-120 -705 -251 -206 -153 -375 -404 -475 -704 -58 -176 -82 -304 -89 -488 l-6
-160 -430 -990 -430 -990 1 -75 c4 -278 241 -569 620 -760 103 -52 341 -140
379 -140 8 0 21 -16 30 -36 19 -45 58 -92 102 -123 60 -40 230 -98 443 -150
650 -158 1174 -155 1833 13 183 47 335 100 390 138 44 30 83 77 102 122 9 20
22 36 30 36 38 0 276 88 379 140 379 191 616 482 620 760 l1 75 -430 990 -430
990 -6 160 c-7 184 -31 312 -89 488 -100 300 -270 551 -475 704 -176 132 -453
230 -705 251 l-85 7 -5 53 c-3 31 -12 57 -20 62 -8 6 -107 10 -220 10 -113 0
-212 -4 -220 -10z m362 -746 c3 -636 4 -656 22 -670 11 -8 25 -14 30 -14 6 0
44 25 85 55 94 71 233 139 341 166 200 50 414 -5 626 -162 43 -32 89 -66 101
-75 46 -33 99 8 73 56 -19 35 -179 147 -285 200 -114 56 -217 86 -325 96 -143
12 -330 -41 -493 -140 l-72 -44 -3 531 c-1 291 0 532 3 535 9 9 203 -21 311
-48 220 -57 400 -155 540 -294 170 -171 316 -458 373 -738 25 -120 41 -266 41
-369 l0 -83 430 -994 c407 -938 431 -997 428 -1045 -3 -50 -18 -16 -417 933
-227 542 -428 1017 -446 1055 -88 191 -361 386 -619 441 -89 19 -293 22 -366
5 -91 -22 -197 -78 -253 -134 l-52 -51 -70 -1 c-48 0 -82 -6 -107 -19 -37 -18
-39 -18 -75 0 -26 13 -60 19 -108 19 l-70 1 -52 51 c-56 56 -162 112 -253 134
-72 17 -275 15 -366 -5 -89 -19 -183 -54 -260 -97 -143 -80 -302 -225 -348
-319 -13 -25 -214 -499 -447 -1055 -407 -969 -424 -1007 -427 -958 -3 48 22
110 428 1045 l430 994 0 83 c0 257 63 527 175 756 75 154 145 257 239 351 141
140 318 237 540 294 108 27 302 57 311 48 3 -3 4 -244 3 -536 l-3 -531 -65 41
c-146 94 -303 142 -460 142 -129 0 -222 -24 -365 -94 -106 -53 -266 -165 -285
-200 -26 -48 27 -89 73 -56 12 9 58 43 101 75 211 156 428 212 626 162 107
-27 247 -95 341 -166 41 -30 79 -55 85 -55 5 0 19 6 30 14 18 14 19 34 22 670
l2 656 140 0 140 0 2 -656z m-712 -693 c135 -22 264 -107 290 -189 20 -62 56
-108 102 -131 57 -27 117 -27 152 0 25 20 28 20 45 5 72 -66 218 -1 256 114
12 35 31 63 69 98 91 83 225 119 401 109 221 -14 425 -113 588 -287 l72 -77
458 -1091 458 -1090 -17 -34 c-80 -156 -277 -329 -501 -442 -151 -75 -363
-147 -363 -122 0 7 -14 62 -32 122 -17 60 -32 120 -33 134 -1 14 -10 63 -18
110 -46 243 -49 692 -8 975 19 126 77 431 96 500 14 50 9 51 -571 161 -547
103 -588 109 -618 98 -45 -17 -20 -55 290 -439 168 -209 311 -383 317 -387 7
-4 20 -8 29 -8 10 0 104 94 215 214 109 118 199 213 201 211 1 -1 -11 -81 -27
-176 -46 -267 -55 -374 -56 -631 0 -131 -1 -238 -2 -238 -2 0 -18 30 -37 68
-19 37 -65 115 -103 173 -58 86 -69 111 -66 136 3 18 -3 49 -15 75 -43 97
-149 134 -245 85 l-48 -25 -38 67 c-21 36 -143 248 -271 471 -127 223 -243
420 -256 438 -72 94 -207 95 -285 3 -19 -22 -155 -251 -303 -510 l-268 -469
-47 25 c-93 50 -200 12 -243 -85 -12 -26 -18 -57 -15 -76 3 -25 -6 -46 -53
-116 -32 -47 -76 -118 -98 -158 l-39 -73 -6 248 c-6 252 -25 440 -67 653 -11
57 -19 105 -17 106 1 1 75 -78 165 -176 225 -245 227 -246 256 -234 15 5 151
166 330 389 229 284 306 386 306 406 0 28 -15 39 -55 39 -22 0 -1072 -195
-1108 -206 -37 -11 -37 -36 -2 -195 77 -342 106 -653 94 -989 -9 -223 -28
-354 -73 -509 -18 -64 -39 -139 -46 -168 l-12 -51 -71 20 c-343 97 -675 330
-791 557 l-18 33 459 1091 458 1091 69 73 c146 155 338 261 521 286 58 8 191
7 245 -2z m496 -206 c19 -15 19 -15 0 -30 -11 -8 -22 -15 -25 -15 -14 0 -71
41 -71 50 0 16 74 12 96 -5z m244 6 c0 -12 -21 -28 -52 -40 -19 -7 -31 -6 -44
5 -18 14 -18 14 0 29 21 16 96 21 96 6z m-220 -1336 l0 -495 -50 0 -50 0 0
421 0 420 27 47 c32 57 63 102 69 102 2 0 4 -223 4 -495z m165 400 l35 -62 0
-416 0 -417 -50 0 -50 0 0 491 c0 548 -3 527 65 404z m-537 -32 c-8 -10 -115
-143 -238 -295 -122 -153 -226 -278 -230 -278 -11 0 -402 422 -396 427 5 6
826 161 855 162 22 1 23 -1 9 -16z m1282 -63 c232 -43 424 -81 426 -83 6 -5
-385 -427 -396 -427 -4 0 -108 125 -230 278 -123 152 -230 285 -238 295 -13
15 -13 17 0 17 9 0 206 -36 438 -80z m-1110 -470 l0 -330 -50 0 -50 0 0 246 0
246 48 84 c26 46 48 84 50 84 1 0 2 -148 2 -330z m563 219 l37 -66 0 -241 0
-242 -50 0 -50 0 0 327 c0 362 -5 345 63 222z m-766 -546 c-3 -2 -43 -3 -90
-1 l-86 3 87 152 87 152 3 -151 c1 -83 1 -153 -1 -155z m992 152 c45 -77 81
-143 81 -147 0 -5 -38 -8 -85 -8 l-85 0 0 152 c0 83 2 149 4 147 2 -2 41 -67
85 -144z m-1319 -183 c60 -76 -44 -168 -115 -102 -32 30 -33 79 -2 107 41 38
85 36 117 -5z m1678 5 c50 -45 10 -131 -60 -129 -38 1 -78 40 -78 76 0 31 35
74 63 78 30 5 48 -1 75 -25z m-218 -114 c11 -27 35 -60 52 -74 l32 -27 -41
-49 c-146 -174 -370 -328 -635 -437 l-88 -36 -87 36 c-266 109 -490 263 -636
437 l-41 49 32 27 c17 14 41 47 52 74 l21 47 659 0 659 0 21 -47z m-1614 -88
c10 -8 26 -15 36 -15 9 0 31 -19 49 -42 110 -143 235 -261 362 -342 83 -53
330 -179 415 -211 l72 -28 73 28 c84 32 331 158 414 211 127 81 252 199 362
342 18 23 39 42 47 42 8 0 26 7 40 16 13 9 26 15 28 13 40 -45 173 -288 219
-399 80 -196 179 -542 168 -588 -18 -72 -106 -123 -316 -184 -376 -109 -666
-152 -1035 -152 -316 0 -484 19 -790 90 -393 90 -545 158 -563 250 -14 74 152
577 250 754 50 91 137 230 144 230 3 0 14 -7 25 -15z"
        />
        <path
            d="M1654 3559 c-221 -25 -391 -173 -458 -398 -53 -178 33 -362 194 -417
113 -39 473 -59 612 -34 157 29 247 89 303 203 84 170 49 353 -95 494 -75 73
-233 137 -370 148 -36 3 -76 7 -90 9 -14 1 -57 -1 -96 -5z m271 -114 c86 -23
176 -67 224 -110 152 -138 132 -404 -38 -489 -83 -42 -144 -51 -326 -50 -185
1 -330 21 -393 53 -135 69 -153 248 -43 418 66 102 161 169 273 193 59 13 230
4 303 -15z"
        />
        <path
            d="M3303 3559 c-335 -30 -548 -227 -530 -492 4 -65 12 -94 42 -154 56
-114 146 -174 303 -203 139 -25 499 -5 612 34 161 55 246 239 194 417 -44 151
-146 279 -272 342 -105 52 -205 68 -349 56z m187 -99 c118 -22 212 -87 281
-193 89 -137 95 -290 16 -375 -60 -65 -199 -95 -452 -96 -182 -1 -243 8 -326
50 -160 80 -190 318 -59 467 99 113 354 182 540 147z"
        />
        <path
            d="M2452 3208 c-7 -7 -12 -21 -12 -33 0 -38 19 -45 120 -45 101 0 120 7
120 45 0 12 -5 26 -12 33 -16 16 -200 16 -216 0z"
        />
        <path
            d="M2470 3073 c-35 -14 -41 -66 -11 -83 11 -5 56 -10 101 -10 91 0 120
10 120 43 0 45 -14 52 -107 54 -48 1 -95 0 -103 -4z"
        />
        <path
            d="M2398 2904 c-9 -18 -9 -30 -1 -42 9 -15 31 -17 163 -17 132 0 154 2
163 17 8 12 8 24 -1 42 l-12 26 -150 0 -150 0 -12 -26z"
        />
    </g>
</svg>
